HIERARCHY
ROOT Hips
{
	OFFSET 0.000000 0.000000 0.000000
	CHANNELS 6 Xposition Yposition Zposition Xrotation Yrotation Zrotation
	JOINT LeftUpLeg_virtual
	{
		OFFSET 0.000000 0.000000 0.000000
		CHANNELS 3 Xrotation Yrotation Zrotation
		JOINT LeftUpLeg
		{
			OFFSET 11.394100 -6.187798 -0.413800
			CHANNELS 3 Xrotation Yrotation Zrotation
			JOINT LeftLeg
			{
				OFFSET 0.430247 -32.302673 3.732800
				CHANNELS 3 Xrotation Yrotation Zrotation
				JOINT LeftFoot
				{
					OFFSET -0.430247 -48.264931 -6.423300
					CHANNELS 3 Xrotation Yrotation Zrotation
					JOINT LeftToeBase
					{
						OFFSET 4.230900 -16.068199 23.438400
						CHANNELS 3 Xrotation Yrotation Zrotation
						JOINT LeftToe_End
						{
							OFFSET 4.510700 0.695400 19.974600
							CHANNELS 3 Xrotation Yrotation Zrotation
							End Site
							{
								OFFSET 0 0 0
							}
						}
					}
				}
			}
		}
	}
	JOINT RightUpLeg_virtual
	{
		OFFSET 0.000000 0.000000 0.000000
		CHANNELS 3 Xrotation Yrotation Zrotation
		JOINT RightUpLeg
		{
			OFFSET -11.333700 -6.187798 -0.413800
			CHANNELS 3 Xrotation Yrotation Zrotation
			JOINT RightLeg
			{
				OFFSET -0.430392 -32.302628 3.733000
				CHANNELS 3 Xrotation Yrotation Zrotation
				JOINT RightFoot
				{
					OFFSET 0.430392 -48.264973 -6.423500
					CHANNELS 3 Xrotation Yrotation Zrotation
					JOINT RightToeBase
					{
						OFFSET -4.230900 -16.068199 23.438400
						CHANNELS 3 Xrotation Yrotation Zrotation
						JOINT RightToe_End
						{
							OFFSET -4.510700 0.695400 19.974600
							CHANNELS 3 Xrotation Yrotation Zrotation
							End Site
							{
								OFFSET 0 0 0
							}
						}
					}
				}
			}
		}
	}
	JOINT Spine_virtual
	{
		OFFSET 0.000000 0.000000 0.000000
		CHANNELS 3 Xrotation Yrotation Zrotation
		JOINT Spine
		{
			OFFSET -0.002400 12.777504 0.315300
			CHANNELS 3 Xrotation Yrotation Zrotation
			JOINT Spine1
			{
				OFFSET -0.002067 5.816869 0.032633
				CHANNELS 3 Xrotation Yrotation Zrotation
				JOINT Spine1_split
				{
					OFFSET -0.002067 5.816869 0.032633
					CHANNELS 3 Xrotation Yrotation Zrotation
					JOINT Spine2
					{
						OFFSET -0.002067 5.816869 0.032633
						CHANNELS 3 Xrotation Yrotation Zrotation
						JOINT Neck_virtual
						{
							OFFSET 0.000000 0.000000 0.000000
							CHANNELS 3 Xrotation Yrotation Zrotation
							JOINT Neck
							{
								OFFSET -0.003700 21.199493 -0.826900
								CHANNELS 3 Xrotation Yrotation Zrotation
								JOINT Head
								{
									OFFSET 0.000000 20.442200 4.834800
									CHANNELS 3 Xrotation Yrotation Zrotation
									JOINT HeadTop_End
									{
										OFFSET 0.000000 34.668396 4.968400
										CHANNELS 3 Xrotation Yrotation Zrotation
										End Site
										{
											OFFSET 0 0 0
										}
									}
								}
							}
						}
						JOINT LeftShoulder_virtual
						{
							OFFSET 0.000000 0.000000 0.000000
							CHANNELS 3 Xrotation Yrotation Zrotation
							JOINT LeftShoulder
							{
								OFFSET 3.288150 8.794197 -1.372250
								CHANNELS 3 Xrotation Yrotation Zrotation
								JOINT LeftShoulder_split
								{
									OFFSET 3.288150 8.794197 -1.372250
									CHANNELS 3 Xrotation Yrotation Zrotation
									JOINT LeftArm
									{
										OFFSET 11.953299 -2.279007 -0.146200
										CHANNELS 3 Xrotation Yrotation Zrotation
										JOINT LeftForeArm
										{
											OFFSET 18.448900 0.000000 0.000000
											CHANNELS 3 Xrotation Yrotation Zrotation
											JOINT LeftHand
											{
												OFFSET 29.527798 0.000000 0.000000
												CHANNELS 3 Xrotation Yrotation Zrotation
												End Site
												{
													OFFSET 0 0 0
												}
											}
										}
									}
								}
							}
						}
						JOINT RightShoulder_virtual
						{
							OFFSET 0.000000 0.000000 0.000000
							CHANNELS 3 Xrotation Yrotation Zrotation
							JOINT RightShoulder
							{
								OFFSET -3.249400 8.794197 -1.372250
								CHANNELS 3 Xrotation Yrotation Zrotation
								JOINT RightShoulder_split
								{
									OFFSET -3.249400 8.794197 -1.372250
									CHANNELS 3 Xrotation Yrotation Zrotation
									JOINT RightArm
									{
										OFFSET -11.953299 -2.279007 -0.146200
										CHANNELS 3 Xrotation Yrotation Zrotation
										JOINT RightForeArm
										{
											OFFSET -18.448900 0.000000 0.000000
											CHANNELS 3 Xrotation Yrotation Zrotation
											JOINT RightHand
											{
												OFFSET -29.527802 0.000000 0.000000
												CHANNELS 3 Xrotation Yrotation Zrotation
												End Site
												{
													OFFSET 0 0 0
												}
											}
										}
									}
								}
							}
						}
					}
				}
			}
		}
	}
}
MOTION
Frames: 5
Frame Time: 0.03333333
192.962296 36.538403 -34.430538 0.000000 0.000000 0.000000 -127.222655 -21.558160 58.741997 -94.098396 8.557344 7.148985 106.644709 -12.736331 1.167486 19.323012 2.745184 7.630048 16.782299 -1.980428 3.864921 0.000000 0.000000 0.000000 -128.119705 -24.650803 56.663891 -93.801344 -0.824928 5.988134 61.245794 0.187621 1.787865 3.006375 1.227560 9.150515 -19.309073 -1.049833 -0.079527 0.000000 0.000000 0.000000 -135.057565 -23.424248 68.604968 13.205124 7.825951 5.536485 23.207212 5.365181 1.725684 -1.248013 1.973534 1.714195 0.000000 0.000000 0.000000 20.326653 5.309460 1.096474 53.547874 -4.544437 -8.424801 -24.246434 -17.231777 13.207801 0.000000 0.000000 0.000000 21.981466 6.452180 1.757350 2.545741 1.513024 4.553842 5.950229 -7.892358 1.228902 -34.890765 -16.901815 -5.093074 175.387961 -43.929857 177.569031 0.000000 0.000000 0.000000 17.980719 5.172322 2.897651 -1.955094 -4.507983 -3.104304 10.299612 -6.478226 6.331761 -76.022608 3.293278 46.935496 -164.454918 61.820875 159.273987 0.000000 0.000000 0.000000 
197.679031 31.911446 -36.087170 0.000000 0.000000 0.000000 -128.914165 -9.151676 68.796930 -90.418509 16.939223 14.702682 104.900204 -10.346137 -0.555173 14.698593 6.771955 8.003067 16.892642 -2.312828 3.881214 0.000000 0.000000 0.000000 -128.280897 -12.705446 64.244589 -93.486111 -0.703882 3.832725 64.940605 -0.076248 2.915587 -2.484013 2.517572 12.246642 -16.336604 0.125117 -1.881767 0.000000 0.000000 0.000000 -136.112461 -12.479060 78.832889 13.823776 5.899891 4.496422 22.707536 5.697968 2.467122 -0.443705 0.961492 1.962724 0.000000 0.000000 0.000000 19.447328 5.753176 1.766464 51.785248 -4.309148 -10.161542 -21.205113 -14.302714 14.073367 0.000000 0.000000 0.000000 22.010160 6.372703 2.364734 1.850709 3.113711 2.666168 5.714164 -7.690622 0.166189 -22.642420 -20.545972 -10.106287 173.270151 -48.167956 176.064245 0.000000 0.000000 0.000000 17.683636 5.490689 3.943715 -2.694390 -5.103362 -4.755349 9.356973 -2.960727 4.689335 -61.026135 -3.320148 45.746483 -155.343719 73.433618 151.007505 0.000000 0.000000 0.000000 
202.865372 27.875294 -37.852528 0.000000 0.000000 0.000000 -132.653557 1.746741 80.375392 -90.943299 27.942565 23.846755 103.804573 -6.543644 -2.347568 9.785131 10.472221 8.623398 14.956929 -2.535691 3.594845 0.000000 0.000000 0.000000 -130.358928 -1.385941 73.010829 -92.261676 -0.933335 1.984780 65.762161 -1.142487 4.182799 -7.133430 2.908518 14.439863 -12.881044 0.915319 -3.668189 0.000000 0.000000 0.000000 -139.483623 -2.602688 89.793437 14.121809 4.100629 3.029643 21.914409 5.988493 2.897565 0.075407 -0.070995 1.993168 0.000000 0.000000 0.000000 19.270115 6.154839 2.216568 49.181224 -3.645444 -10.710454 -20.079831 -12.682177 14.799447 0.000000 0.000000 0.000000 22.286480 6.370442 2.786533 1.276703 3.310020 -0.481982 5.671522 -6.217068 0.976754 -13.811309 -22.165326 -13.435342 171.235916 -55.035499 173.718239 0.000000 0.000000 0.000000 17.633385 5.810290 4.784351 -3.144980 -3.636832 -5.230852 8.460624 1.280206 3.435438 -47.753602 -4.355318 45.053881 -59.006079 83.270606 55.812583 0.000000 0.000000 0.000000 
208.709305 25.066612 -38.728733 0.000000 0.000000 0.000000 -138.136328 11.438666 93.432384 -96.841093 37.070176 32.712908 104.139341 -2.640674 -3.720458 6.530428 12.935448 8.651351 11.670844 -2.640199 2.850134 0.000000 0.000000 0.000000 -134.449938 8.458542 82.781203 -89.457139 -0.471978 1.239517 63.728356 -3.203139 5.553836 -10.363331 2.445570 15.008031 -10.232889 1.157528 -4.922955 0.000000 0.000000 0.000000 -144.967855 5.931474 101.998521 13.927149 2.940849 1.446460 20.908148 6.327071 2.939603 -0.044041 -0.418541 1.623480 0.000000 0.000000 0.000000 19.737208 6.610327 2.330765 45.627101 -2.278171 -9.590932 -21.464597 -12.374570 15.592470 0.000000 0.000000 0.000000 22.623297 6.608067 2.885191 0.789410 2.299953 -4.086354 5.100114 -4.885589 2.843249 -7.054310 -21.635066 -15.305996 168.745329 -63.584526 170.120833 0.000000 0.000000 0.000000 17.646762 6.131349 5.220751 -3.395329 -1.146733 -4.747539 8.393514 5.363918 2.044997 -38.061065 -2.146167 43.195889 -9.199026 65.449386 7.333280 0.000000 0.000000 0.000000 
215.037949 23.896248 -39.335155 0.000000 0.000000 0.000000 -145.704929 18.938084 107.561245 -105.020258 41.987297 38.662747 106.382341 0.900771 -5.008352 4.099778 13.889520 9.651354 7.649458 -2.533643 1.632754 0.000000 0.000000 0.000000 -140.560498 16.223289 93.585128 -85.819770 1.133925 1.691586 60.860797 -5.190917 6.417639 -11.596191 1.965897 14.610968 -9.059115 1.202100 -5.584669 0.000000 0.000000 0.000000 -152.056198 12.088088 114.197368 13.404737 2.669186 0.157377 19.821720 6.781620 2.709241 -0.608252 -0.588486 1.847919 0.000000 0.000000 0.000000 20.697218 7.060690 2.091263 40.717855 -0.210335 -7.278571 -25.131961 -12.607044 16.367143 0.000000 0.000000 0.000000 22.796713 7.083363 2.673229 0.276101 0.260141 -7.350837 3.140026 -3.492515 3.511066 -1.590786 -20.334199 -16.071410 163.982747 -72.315120 163.762910 0.000000 0.000000 0.000000 17.651605 6.481146 5.241230 -3.425388 1.516706 -3.526310 8.586437 7.757626 0.190230 -32.682633 0.409986 40.320243 -2.419142 47.854170 1.803236 0.000000 0.000000 0.000000 
